<svg xmlns="http://www.w3.org/2000/svg" width="800" height="500" viewBox="0 0 800 500">
  <defs>
    <linearGradient id="belt2" x1="0" y1="0" x2="0" y2="1">
      <stop offset="0" stop-color="#1a1c20"/><stop offset="1" stop-color="#0e0f12"/>
    </linearGradient>
    <linearGradient id="loaf" x1="0" y1="0" x2="0" y2="1">
      <stop offset="0" stop-color="#cf9a55"/><stop offset="1" stop-color="#8a5e2b"/>
    </linearGradient>
  </defs>
  <rect width="800" height="500" fill="url(#belt2)"/>
  <g>
    <rect x="80" y="130" width="200" height="110" rx="48" fill="url(#loaf)"/>
    <rect x="310" y="130" width="200" height="110" rx="48" fill="url(#loaf)"/>
    <rect x="540" y="130" width="200" height="110" rx="48" fill="url(#loaf)"/>
    <rect x="80" y="290" width="200" height="110" rx="48" fill="url(#loaf)"/>
    <rect x="310" y="290" width="200" height="110" rx="48" fill="url(#loaf)"/>
    <rect x="540" y="290" width="200" height="110" rx="48" fill="url(#loaf)"/>
    <g stroke="#5e3f1d" stroke-width="3" opacity="0.6">
      <line x1="120" y1="150" x2="120" y2="220"/><line x1="160" y1="150" x2="160" y2="220"/><line x1="200" y1="150" x2="200" y2="220"/>
      <line x1="350" y1="310" x2="350" y2="380"/><line x1="390" y1="310" x2="390" y2="380"/><line x1="430" y1="310" x2="430" y2="380"/>
    </g>
  </g>
  <text x="16" y="28" fill="#6b7280" font-family="monospace" font-size="15">CAM-01 · Line 1 · Bread</text>
</svg>
