<svg xmlns="http://www.w3.org/2000/svg" width="800" height="500" viewBox="0 0 800 500">
  <defs>
    <linearGradient id="belt" x1="0" y1="0" x2="0" y2="1">
      <stop offset="0" stop-color="#1a1c20"/><stop offset="1" stop-color="#0e0f12"/>
    </linearGradient>
    <radialGradient id="naan" cx="50%" cy="40%" r="65%">
      <stop offset="0" stop-color="#e8c074"/><stop offset="0.7" stop-color="#c9933f"/><stop offset="1" stop-color="#a06f2a"/>
    </radialGradient>
    <radialGradient id="burn" cx="50%" cy="35%" r="60%">
      <stop offset="0" stop-color="#7a4a1a"/><stop offset="1" stop-color="#3d2410"/>
    </radialGradient>
  </defs>
  <rect width="800" height="500" fill="url(#belt)"/>
  <g stroke="#000" stroke-opacity="0.15">
    <line x1="0" y1="120" x2="800" y2="120"/><line x1="0" y1="250" x2="800" y2="250"/><line x1="0" y1="380" x2="800" y2="380"/>
  </g>
  <g>
    <ellipse cx="150" cy="180" rx="90" ry="55" fill="url(#naan)"/>
    <ellipse cx="120" cy="160" rx="38" ry="20" fill="url(#burn)" opacity="0.85"/>
    <ellipse cx="400" cy="180" rx="92" ry="56" fill="url(#naan)"/>
    <ellipse cx="372" cy="158" rx="44" ry="22" fill="url(#burn)" opacity="0.9"/>
    <ellipse cx="650" cy="180" rx="90" ry="55" fill="url(#naan)"/>
    <ellipse cx="624" cy="160" rx="40" ry="20" fill="url(#burn)" opacity="0.8"/>
    <ellipse cx="270" cy="350" rx="92" ry="56" fill="url(#naan)"/>
    <ellipse cx="540" cy="350" rx="92" ry="56" fill="url(#naan)"/>
    <ellipse cx="512" cy="328" rx="42" ry="21" fill="url(#burn)" opacity="0.85"/>
  </g>
  <text x="16" y="28" fill="#6b7280" font-family="monospace" font-size="15">CAM-03 · Line 3 · Naan</text>
</svg>
